<svg class="svg" height="85" viewBox="0 0 512 512" width="94" xmlns="http://www.w3.org/2000/svg"><path d="M447 140h-49.333c-4.143 0-7.5 3.357-7.5 7.5s3.357 7.5 7.5 7.5H447c4.143 0 7.5-3.357 7.5-7.5s-3.357-7.5-7.5-7.5z"/><path d="M470.684 107.414H367.923l-23.377-50.818c-5.056-10.989-16.14-18.091-28.236-18.091H195.69c-12.097 0-23.181 7.102-28.236 18.091l-23.377 50.818h-18.318v-8.969c0-11.689-9.51-21.2-21.2-21.2H55.547c-11.689 0-21.2 9.511-21.2 21.2v9.568C14.874 111.337 0 128.324 0 148.73v283.448c0 22.782 18.535 41.316 41.316 41.316h429.367c22.782 0 41.316-18.534 41.316-41.316v-60.662c0-4.143-3.357-7.5-7.5-7.5s-7.5 3.357-7.5 7.5v21.55H365.616c22.18-25.509 35.625-58.805 35.625-95.183 0-43.942-19.618-83.386-50.553-110.041H497v148.611c0 4.143 3.357 7.5 7.5 7.5s7.5-3.357 7.5-7.5V148.73c0-22.782-18.534-41.316-41.316-41.316zM181.082 62.865a16.124 16.124 0 0114.609-9.36H316.31a16.126 16.126 0 0114.609 9.36l20.493 44.549H160.588zM55.547 92.245h49.013c3.418 0 6.2 2.781 6.2 6.2v8.969H49.347v-8.969c0-3.419 2.781-6.2 6.2-6.2zM497 432.179c0 14.511-11.806 26.316-26.316 26.316H41.316c-14.51 0-26.316-11.806-26.316-26.316v-24.112h146.478c25.423 21.84 58.456 35.059 94.522 35.059s69.099-13.218 94.522-35.059H497zM386.241 297.884c0 71.815-58.426 130.241-130.241 130.241s-130.241-58.426-130.241-130.241c0-71.814 58.426-130.24 130.241-130.24s130.241 58.425 130.241 130.24zm-56.434-125.041c-21.643-12.824-46.878-20.199-73.807-20.199s-52.164 7.375-73.807 20.199H96.5c-4.142 0-7.5 3.357-7.5 7.5s3.358 7.5 7.5 7.5h64.812c-30.934 26.655-50.552 66.099-50.552 110.041 0 36.378 13.445 69.673 35.625 95.183H15V187.843h46.617c4.142 0 7.5-3.357 7.5-7.5s-3.358-7.5-7.5-7.5H15V148.73c0-14.511 11.806-26.316 26.316-26.316h429.367c14.511 0 26.316 11.806 26.316 26.316v24.112H329.807z"/><path d="M256 206.569c-50.351 0-91.314 40.964-91.314 91.314s40.963 91.314 91.314 91.314 91.314-40.964 91.314-91.314-40.963-91.314-91.314-91.314zm0 167.629c-42.08 0-76.314-34.234-76.314-76.314S213.92 221.569 256 221.569s76.314 34.234 76.314 76.314S298.08 374.198 256 374.198z"/></svg>