<svg xmlns="http://www.w3.org/2000/svg" width="52" height="43" viewBox="0 0 48.057 48.057"><path d="M6.974 41.3H4.64c-.974 0-1.765-.79-1.765-1.762V14.413c0-.971.791-1.762 1.765-1.762h11.012a1.438 1.438 0 000-2.876H4.64c-2.56 0-4.64 2.08-4.64 4.639v25.125a4.643 4.643 0 004.64 4.639h2.334a1.44 1.44 0 000-2.878zM43.417 9.774h-2.334a1.438 1.438 0 000 2.876h2.334c.974 0 1.765.79 1.765 1.763v25.125c0 .972-.791 1.762-1.765 1.762H33.124a1.439 1.439 0 000 2.876h10.293c2.56 0 4.64-2.08 4.64-4.637V14.413a4.644 4.644 0 00-4.64-4.639zM6.191 8.798c.795 0 1.438-.644 1.438-1.438v-.306a.3.3 0 01.299-.299h2.318a.3.3 0 01.299.299v.306c0 .794.646 1.438 1.438 1.438s1.438-.644 1.438-1.438v-.306a3.179 3.179 0 00-3.174-3.175H7.929a3.18 3.18 0 00-3.176 3.175v.306a1.44 1.44 0 001.438 1.438z"/><path d="M40.03 26.977c0-7.601-6.185-13.784-13.783-13.784s-13.781 6.183-13.781 13.784c0 7.6 6.183 13.783 13.781 13.783 7.601 0 13.783-6.184 13.783-13.783zM26.247 37.882c-6.013 0-10.904-4.893-10.904-10.905 0-6.014 4.894-10.906 10.904-10.906 6.017 0 10.908 4.893 10.908 10.906s-4.891 10.905-10.908 10.905z"/><path d="M26.247 17.867c-5.02 0-9.107 4.086-9.107 9.109 0 5.022 4.087 9.106 9.107 9.106 5.021 0 9.108-4.086 9.108-9.106.002-5.022-4.084-9.109-9.108-9.109zm0 15.342c-3.435 0-6.229-2.797-6.229-6.232a6.237 6.237 0 016.229-6.231 6.237 6.237 0 016.231 6.231 6.236 6.236 0 01-6.231 6.232z"/></svg>