<svg height="30" viewBox="0 0 24 24" width="41" xmlns="http://www.w3.org/2000/svg"><path d="M.5 7a.5.5 0 01-.5-.5v-2C0 3.122 1.122 2 2.5 2h2a.5.5 0 010 1h-2C1.673 3 1 3.673 1 4.5v2a.5.5 0 01-.5.5zm23 0a.5.5 0 01-.5-.5v-2c0-.827-.673-1.5-1.5-1.5h-2a.5.5 0 010-1h2C22.878 2 24 3.122 24 4.5v2a.5.5 0 01-.5.5zm-19 15h-2A2.503 2.503 0 010 19.5v-2a.5.5 0 011 0v2c0 .827.673 1.5 1.5 1.5h2a.5.5 0 010 1zm17 0h-2a.5.5 0 010-1h2c.827 0 1.5-.673 1.5-1.5v-2a.5.5 0 011 0v2c0 1.378-1.122 2.5-2.5 2.5zM12 16c-2.206 0-4-1.794-4-4s1.794-4 4-4 4 1.794 4 4-1.794 4-4 4zm0-7c-1.654 0-3 1.346-3 3s1.346 3 3 3 3-1.346 3-3-1.346-3-3-3z"/></svg>