<svg height="30" viewBox="-30 0 512 512.031" width="41" xmlns="http://www.w3.org/2000/svg"><path d="M164.625 121.848a8.747 8.747 0 000 12.195 8.608 8.608 0 0012.117 0 8.747 8.747 0 000-12.195 8.904 8.904 0 00-12.117 0zm0 34.132a8.747 8.747 0 000 12.196 8.608 8.608 0 0012.117 0 8.748 8.748 0 000-12.196 8.904 8.904 0 00-12.117 0zm0 34.133a8.747 8.747 0 000 12.196 8.608 8.608 0 0012.117 0 8.748 8.748 0 000-12.196 8.904 8.904 0 00-12.117 0zm128 0a8.747 8.747 0 000 12.196 8.608 8.608 0 0012.117 0 8.748 8.748 0 000-12.196 8.904 8.904 0 00-12.117 0zm6.059-53.578a8.952 8.952 0 006.058-2.492 8.747 8.747 0 000-12.195 8.904 8.904 0 00-12.117 0 8.747 8.747 0 000 12.195 8.945 8.945 0 006.059 2.492zm-8.536 34.133h8.536c4.71 0 8.53-3.82 8.53-8.535a8.531 8.531 0 00-8.53-8.531h-8.536a8.532 8.532 0 00-8.53 8.53 8.533 8.533 0 008.53 8.536zM230.414 51.2h34.137a8.533 8.533 0 008.531-8.532 8.533 8.533 0 00-8.531-8.535h-34.137a8.533 8.533 0 00-8.531 8.535c0 4.71 3.82 8.531 8.531 8.531zm42.668 136.534v-51.199c0-9.426-7.64-17.066-17.066-17.066h-42.668c-9.426 0-17.067 7.64-17.067 17.066v51.2c0 9.425 7.64 17.066 17.067 17.066h42.668c9.425 0 17.066-7.64 17.066-17.067zm-59.734-51.199h42.668v51.2h-42.668zm0 0"/><path d="M25.617 307.2h51.2a25.594 25.594 0 0024.027-17.067h52.773c0 9.426 7.64 17.066 17.067 17.066V337L65.227 470.57c-8.75 11.106-6.844 27.203 4.261 35.957 11.106 8.75 27.203 6.844 35.957-4.261l120.313-152.399h4.656v136.535c0 14.137 11.465 25.598 25.602 25.598s25.601-11.46 25.601-25.598V349.867h4.656l120.32 152.45c8.778 11.09 24.884 12.96 35.973 4.183s12.965-24.883 4.188-35.973L341.348 337v-29.8c9.425 0 17.066-7.641 17.066-17.067v-17.067c0-9.425-7.64-17.066-17.066-17.066h-59.73v-17.066h109.687c14.652.144 26.66-11.602 26.843-26.258V93.867c0-21.058-15.66-37.281-39.039-40.379l-68.191-8.484-1.047 8.476.656-8.73-15.59-30.293A26.814 26.814 0 00270.95 0h-50.082a26.809 26.809 0 00-23.996 14.45l-16.555 31.886-31.148 13.758a35.163 35.163 0 00-21.152 31.992v120.59c.183 14.656 12.191 26.402 26.847 26.258h75.551V256h-59.73c-9.426 0-17.067 7.64-17.067 17.066h-52.773A25.6 25.6 0 0076.816 256H25.617C11.477 256 .016 267.46.016 281.602c0 14.136 11.46 25.597 25.601 25.597zM92.09 491.647a8.72 8.72 0 01-12.067 1.426c-3.664-2.93-4.277-8.265-1.375-11.945l103.63-131.262h21.734zm172.46-5.246c0 4.711-3.823 8.532-8.534 8.532a8.533 8.533 0 01-8.536-8.532V349.867h17.07zm167.45 6.68a8.755 8.755 0 01-12.016-1.383L308.02 349.867h21.734l103.601 131.2A8.537 8.537 0 01432 493.081zm-107.719-160.28H187.75v-25.602h136.531zm76.801-153.278h-13.387a6.291 6.291 0 01-3.68-1.003v-75.094a6.264 6.264 0 013.68-1.024h13.387zM156.066 75.707l31.145-13.754a17.63 17.63 0 008.535-8.012l16.305-31.687a9.916 9.916 0 018.816-5.188h50.082a9.773 9.773 0 018.805 5.2l15.59 30.285a17.655 17.655 0 0013.39 9.387h.086l68.114 8.464a27.128 27.128 0 0122.441 14.934h-11.68a19.063 19.063 0 00-13.992 4.379 19.07 19.07 0 00-6.754 13.012v76.472a19.07 19.07 0 006.754 13.012 19.063 19.063 0 0013.992 4.379h13.387v16.086a9.514 9.514 0 01-9.777 9.191h-44.836a29.7 29.7 0 003.414-13.652v-92.16c-.25-17.196-14.38-30.946-31.574-30.72h-158.72a31.9 31.9 0 00-13.987 3.317 18.184 18.184 0 0110.464-12.945zm-10.984 136.969v-96.621c.246-7.774 6.734-13.88 14.508-13.653h158.719c7.773-.226 14.261 5.88 14.507 13.653v92.16c-.246 7.77-6.734 13.879-14.507 13.652H154.863a9.514 9.514 0 01-9.781-9.191zm102.398 26.258h17.07V256h-17.07zm-76.796 34.132h170.664v17.067H170.684zm-145.067 0h51.2c4.71 0 8.53 3.82 8.53 8.536 0 4.71-3.82 8.53-8.53 8.53h-51.2a8.533 8.533 0 110-17.066zm0 0"/></svg>