<svg xmlns="http://www.w3.org/2000/svg" viewBox="0 0 512 512"><path d="M256 0C114.837 0 0 114.837 0 256s114.837 256 256 256 256-114.837 256-256S397.163 0 256 0zm0 490.667c-129.387 0-234.667-105.28-234.667-234.667S126.613 21.333 256 21.333 490.667 126.613 490.667 256 385.387 490.667 256 490.667z"/><path d="M481.835 341.333h-278.23c-5.888 0-10.667 4.779-10.667 10.667s4.779 10.667 10.667 10.667h278.229c5.888 0 10.667-4.779 10.667-10.667s-4.778-10.667-10.666-10.667z"/><path d="M296.213 494.123L158.229 249.771c-2.901-5.141-9.451-6.933-14.549-4.032-5.12 2.901-6.933 9.429-4.032 14.549L277.611 504.64a10.712 10.712 0 009.301 5.419 10.53 10.53 0 005.269-1.387c5.12-2.901 6.934-9.429 4.032-14.549z"/><path d="M207.915 150.699c-5.12-2.859-11.648-1.088-14.528 4.053L53.696 402.219c-2.901 5.163-1.088 11.648 4.032 14.549a10.828 10.828 0 005.248 1.365c3.712 0 7.339-1.963 9.28-5.419l139.691-247.467c2.901-5.162 1.088-11.647-4.032-14.548z"/><path d="M308.416 149.333H30.635c-5.909 0-10.667 4.779-10.667 10.667s4.779 10.667 10.667 10.667h277.76c5.888 0 10.688-4.779 10.688-10.667s-4.779-10.667-10.667-10.667z"/><path d="M372.437 251.541L234.517 7.317c-2.923-5.141-9.451-6.912-14.549-4.032-5.12 2.901-6.933 9.429-4.032 14.549l137.899 244.224a10.712 10.712 0 009.301 5.419 10.53 10.53 0 005.269-1.387c5.12-2.901 6.934-9.429 4.032-14.549z"/><path d="M454.507 95.531c-5.099-2.901-11.605-1.131-14.549 4.032L300.053 346.752c-2.901 5.141-1.088 11.627 4.032 14.549a10.769 10.769 0 005.248 1.365c3.712 0 7.317-1.941 9.301-5.397L458.539 110.08c2.901-5.141 1.088-11.627-4.032-14.549z"/></svg>