<svg height="30px" viewBox="-30 0 512 512.03102" width="41px" xmlns="http://www.w3.org/2000/svg"><path d="m164.625 121.847656c-3.300781 3.394532-3.300781 8.800782 0 12.195313 3.355469 3.324219 8.761719 3.324219 12.117188 0 3.300781-3.394531 3.300781-8.800781 0-12.195313-3.417969-3.171875-8.703126-3.171875-12.117188 0zm0 0"/><path d="m164.625 155.980469c-3.300781 3.394531-3.300781 8.800781 0 12.195312 3.355469 3.324219 8.761719 3.324219 12.117188 0 3.300781-3.394531 3.300781-8.800781 0-12.195312-3.417969-3.171875-8.703126-3.171875-12.117188 0zm0 0"/><path d="m164.625 190.113281c-3.300781 3.394531-3.300781 8.800781 0 12.195313 3.355469 3.324218 8.761719 3.324218 12.117188 0 3.300781-3.394532 3.300781-8.800782 0-12.195313-3.417969-3.171875-8.703126-3.171875-12.117188 0zm0 0"/><path d="m292.625 190.113281c-3.300781 3.394531-3.300781 8.800781 0 12.195313 3.355469 3.324218 8.761719 3.324218 12.117188 0 3.300781-3.394532 3.300781-8.800782 0-12.195313-3.417969-3.171875-8.703126-3.171875-12.117188 0zm0 0"/><path d="m298.683594 136.535156c2.261718-.035156 4.425781-.925781 6.058594-2.492187 3.300781-3.394531 3.300781-8.800781 0-12.195313-3.417969-3.171875-8.703126-3.171875-12.117188 0-3.300781 3.394532-3.300781 8.800782 0 12.195313 1.628906 1.566406 3.796875 2.457031 6.058594 2.492187zm0 0"/><path d="m290.148438 170.667969h8.535156c4.710937 0 8.53125-3.820313 8.53125-8.535157 0-4.710937-3.820313-8.53125-8.53125-8.53125h-8.535156c-4.710938 0-8.53125 3.820313-8.53125 8.53125 0 4.714844 3.820312 8.535157 8.53125 8.535157zm0 0"/><path d="m230.414062 51.199219h34.136719c4.710938 0 8.53125-3.820313 8.53125-8.53125 0-4.714844-3.820312-8.535157-8.53125-8.535157h-34.136719c-4.710937 0-8.53125 3.820313-8.53125 8.535157 0 4.710937 3.820313 8.53125 8.53125 8.53125zm0 0"/><path d="m273.082031 187.734375v-51.199219c0-9.425781-7.640625-17.066406-17.066406-17.066406h-42.667969c-9.425781 0-17.066406 7.640625-17.066406 17.066406v51.199219c0 9.425781 7.640625 17.066406 17.066406 17.066406h42.667969c9.425781 0 17.066406-7.640625 17.066406-17.066406zm-59.734375-51.199219h42.667969v51.199219h-42.667969zm0 0"/><path d="m25.617188 307.199219h51.199218c10.808594-.042969 20.425782-6.875 24.027344-17.066407h52.773438c0 9.425782 7.640624 17.066407 17.066406 17.066407v29.800781l-105.457032 133.570312c-8.75 11.105469-6.84375 27.203126 4.261719 35.957032 11.105469 8.75 27.203125 6.84375 35.957031-4.261719l120.3125-152.398437h4.65625v136.535156c0 14.136718 11.464844 25.597656 25.601563 25.597656s25.601563-11.460938 25.601563-25.597656v-136.535156h4.65625l120.320312 152.449218c8.777344 11.089844 24.882812 12.960938 35.972656 4.183594s12.964844-24.882812 4.1875-35.972656l-105.40625-133.527344v-29.800781c9.425782 0 17.066406-7.640625 17.066406-17.066407v-17.066406c0-9.425781-7.640624-17.066406-17.066406-17.066406h-59.730468v-17.066406h109.6875c14.652343.144531 26.660156-11.601563 26.84375-26.257813v-118.808593c0-21.058594-15.660157-37.28125-39.039063-40.378907l-68.191406-8.484375-1.046875 8.476563.65625-8.730469-15.589844-30.292969c-4.644531-8.945312-13.910156-14.5273435-23.988281-14.457031h-50.082031c-10.078126-.078125-19.347657 5.503906-23.996094 14.449219l-16.554688 31.886719-31.148437 13.757812c-12.757813 5.539062-21.046875 18.082031-21.152344 31.992188v120.589843c.183594 14.65625 12.191406 26.402344 26.847656 26.257813h75.550781v17.066406h-59.730468c-9.425782 0-17.066406 7.640625-17.066406 17.066406h-52.773438c-3.601562-10.191406-13.21875-17.019531-24.027344-17.066406h-51.199218c-14.140626 0-25.601563 11.460938-25.601563 25.601562 0 14.136719 11.460937 25.597657 25.601563 25.597657zm66.472656 184.449219c-2.976563 3.660156-8.320313 4.292968-12.066406 1.425781-3.664063-2.929688-4.277344-8.265625-1.375-11.945313l103.628906-131.261718h21.734375zm172.460937-5.246094c0 4.710937-3.824219 8.53125-8.535156 8.53125-4.714844 0-8.535156-3.820313-8.535156-8.53125v-136.535156h17.070312zm167.449219 6.679687c-3.734375 2.824219-9.023438 2.214844-12.015625-1.382812l-111.964844-141.832031h21.734375l103.601563 131.199218c1.417969 1.773438 2.070312 4.035156 1.816406 6.289063-.253906 2.253906-1.394531 4.316406-3.171875 5.726562zm-107.71875-160.28125h-136.53125v-25.601562h136.53125zm76.800781-153.277343h-13.386719c-1.300781.054687-2.585937-.296876-3.679687-1.003907v-75.09375c1.089844-.714843 2.375-1.074219 3.679687-1.023437h13.386719zm-245.015625-103.816407 31.144532-13.753906c3.675781-1.621094 6.6875-4.449219 8.535156-8.011719l16.304687-31.6875c1.75-3.226562 5.144531-5.226562 8.816407-5.1875h50.082031c3.679687-.0625 7.082031 1.945313 8.804687 5.199219l15.589844 30.285156c2.65625 5.132813 7.660156 8.636719 13.390625 9.386719h.085937l68.113282 8.464844c9.597656.644531 18.136718 6.328125 22.441406 14.933594h-11.679688c-5.0625-.464844-10.097656 1.113281-13.992187 4.378906-3.894531 3.261718-6.324219 7.945312-6.753906 13.011718v76.472657c.429687 5.066406 2.859375 9.75 6.753906 13.011719 3.894531 3.265624 8.929687 4.84375 13.992187 4.378906h13.386719v16.085937c-.175781 5.234375-4.546875 9.339844-9.777343 9.191407h-44.835938c2.214844-4.210938 3.386719-8.894532 3.414062-13.652344v-92.160156c-.25-17.195313-14.378906-30.945313-31.574218-30.71875h-158.71875c-4.855469.027343-9.636719 1.160156-13.988282 3.316406 1.191407-5.75 5.089844-10.574219 10.464844-12.945313zm-10.984375 136.96875v-96.621093c.246094-7.773438 6.734375-13.878907 14.507813-13.652344h158.71875c7.773437-.226563 14.261718 5.878906 14.507812 13.652344v92.160156c-.246094 7.769531-6.734375 13.878906-14.507812 13.652344h-163.445313c-5.234375.148437-9.605469-3.957032-9.78125-9.191407zm102.398438 26.257813h17.070312v17.066406h-17.070312zm-76.796875 34.132812h170.664062v17.066406h-170.664062zm-145.066406 0h51.199218c4.710938 0 8.53125 3.820313 8.53125 8.535156 0 4.710938-3.820312 8.53125-8.53125 8.53125h-51.199218c-4.714844 0-8.535157-3.820312-8.535157-8.53125 0-4.714843 3.820313-8.535156 8.535157-8.535156zm0 0"/></svg>